Coordinates
version=1
nRows=27
nColumns=33
inDegrees=yes

Units are S.I. units (second, meters, Newtons, ...)
Angles are in degrees.

endheader
time	ground_thorax_rot_x	ground_thorax_rot_y	ground_thorax_rot_z	ground_thorax_tx	ground_thorax_ty	ground_thorax_tz	clav_prot_r	clav_elev_r	scapula_abduction_r	scapula_elevation_r	scapula_upward_rot_r	scapula_winging_r	shoulder_elv_r	plane_of_elev_r	axial_rot_r	elbow_flexion_r	pro_sup_r	wrist_flex_r	wrist_dev_r	clav_prot_l	clav_elev_l	scapula_abduction_l	scapula_elevation_l	scapula_upward_rot_l	scapula_winging_l	shoulder_elv_l	plane_of_elev_l	axial_rot_l	elbow_flexion_l	pro_sup_l	wrist_flex_l	wrist_dev_l	
13.8500	-37.710562	-9.703707	16.449562	-48.162534	787.469208	-29.955592	23.544841	-45.000000	34.503694	-45.000000	-45.000000	-1170.916910	-3167.451389	23.194064	180.000000	1804.730326	-178.001861	12.794409	15.141693	4.106489	27.604248	-28.160700	-45.000000	-45.000000	-2447.378092	-985.356266	17.646906	-180.000000	1079.663514	538.591369	12.238370	-15.636909	
13.8600	-37.733245	-9.504206	16.099229	-51.123454	788.927468	-29.952830	23.522460	-45.000000	34.468639	-45.000000	-45.000000	-1171.113407	-3167.406540	23.227723	180.000000	1804.696430	-178.387247	12.807646	15.154975	4.011747	27.636882	-28.133551	-45.000000	-45.000000	-2447.275772	-985.278110	17.677566	-180.000000	1079.628907	538.370759	12.263886	-15.713512	
13.8700	-37.754289	-9.311061	15.745934	-54.014496	790.426129	-29.955544	23.498778	-45.000000	34.433987	-45.000000	-45.000000	-1171.308153	-3167.359504	23.265045	180.000000	1804.660465	-178.776416	12.827908	15.163972	3.919789	27.670777	-28.108247	-45.000000	-45.000000	-2447.170379	-985.194780	17.713333	-180.000000	1079.589272	538.145612	12.282186	-15.793131	
13.8800	-37.772983	-9.127303	15.393697	-56.829874	791.967861	-29.965469	23.473268	-45.000000	34.398719	-45.000000	-45.000000	-1171.500801	-3167.308660	23.304280	180.000000	1804.621123	-179.167199	12.856647	15.166855	3.830626	27.706067	-28.086740	-45.000000	-45.000000	-2447.062326	-985.109228	17.750605	-180.000000	1079.544456	537.932142	12.287863	-15.877629	
13.8900	-37.788524	-8.954152	15.043867	-59.564010	793.554801	-29.984386	23.446249	-45.000000	34.365319	-45.000000	-45.000000	-1171.692592	-3167.254220	23.346272	180.000000	1804.578293	-179.557078	12.894691	15.165852	3.740949	27.744855	-28.068380	-45.000000	-45.000000	-2446.949037	-985.020344	17.792425	-180.000000	1079.497025	537.742063	12.279927	-15.966419	
13.9000	-37.801287	-8.792216	14.699563	-62.211789	795.188170	-30.013896	23.418154	-45.000000	34.338808	-45.000000	-45.000000	-1171.883878	-3167.198350	23.387400	180.000000	1804.531584	-179.943518	12.942673	15.159449	3.648659	27.786506	-28.055540	-45.000000	-45.000000	-2446.832006	-984.931432	17.834855	-180.000000	1079.446503	537.581488	12.254354	-16.060362	
13.9100	-37.814975	-8.632680	14.352298	-64.769192	796.868066	-30.055245	23.386240	-45.000000	34.311387	-45.000000	-45.000000	-1172.068407	-3167.140345	23.429459	180.000000	1804.480410	-180.322201	13.000888	15.146970	3.566204	27.826635	-28.052919	-45.000000	-45.000000	-2446.713737	-984.837628	17.875014	-180.000000	1079.387664	537.449004	12.205614	-16.160153	
13.9200	-37.830427	-8.465522	13.997672	-67.233791	798.593153	-30.109265	23.345253	-45.000000	34.282584	-45.000000	-45.000000	-1172.242445	-3167.078864	23.465909	180.000000	1804.416963	-180.690687	13.071081	15.124765	3.503384	27.860135	-28.069030	-45.000000	-45.000000	-2446.603070	-984.741594	17.903164	-180.000000	1079.315249	537.336742	12.127867	-16.267109	
13.9300	-37.847878	-8.299490	13.642485	-69.605224	800.360616	-30.176441	23.300399	-45.000000	34.249665	-45.000000	-45.000000	-1172.410305	-3167.014901	23.504864	180.000000	1804.351548	-181.050678	13.148652	15.100574	3.448760	27.893149	-28.090778	-45.000000	-45.000000	-2446.491335	-984.640028	17.933145	-180.000000	1079.238416	537.237586	12.035553	-16.375796	
13.9400	-37.868704	-8.136023	13.287934	-71.885265	802.166150	-30.257078	23.254148	-45.000000	34.219015	-45.000000	-45.000000	-1172.573186	-3166.951822	23.544142	180.000000	1804.283314	-181.406451	13.231463	15.077766	3.401779	27.926681	-28.118906	-45.000000	-45.000000	-2446.376698	-984.537871	17.963531	-180.000000	1079.156817	537.140718	11.936866	-16.484263	
13.9500	-37.891186	-7.988856	12.945641	-74.077645	804.004347	-30.351496	23.213839	-45.000000	34.189497	-45.000000	-45.000000	-1172.737613	-3166.890042	23.591063	180.000000	1804.225551	-181.765482	13.312294	15.066070	3.348709	27.967316	-28.140336	-45.000000	-45.000000	-2446.247805	-984.434532	18.009964	-180.000000	1079.083932	537.037055	11.852165	-16.584499	
13.9600	-37.914664	-7.855892	12.616034	-76.187259	805.869025	-30.460176	23.179532	-45.000000	34.169110	-45.000000	-45.000000	-1172.904046	-3166.830748	23.637234	180.000000	1804.170976	-182.136112	13.390181	15.063079	3.292682	28.012786	-28.162768	-45.000000	-45.000000	-2446.110075	-984.337359	18.062272	-180.000000	1079.018787	536.912048	11.783049	-16.675668	
13.9700	-37.939324	-7.740217	12.301820	-78.219444	807.753902	-30.583859	23.151008	-45.000000	34.152615	-45.000000	-45.000000	-1173.072275	-3166.773449	23.686502	180.000000	1804.126513	-182.525461	13.460199	15.071023	3.229242	28.065488	-28.179439	-45.000000	-45.000000	-2445.960856	-984.243297	18.125080	-180.000000	1078.965486	536.751721	11.734560	-16.754556	
13.9800	-37.963553	-7.635918	11.999643	-80.179021	809.652943	-30.723576	23.127502	-45.000000	34.146152	-45.000000	-45.000000	-1173.242450	-3166.719380	23.732115	180.000000	1804.082575	-182.940905	13.522474	15.086638	3.162501	28.122745	-28.197441	-45.000000	-45.000000	-2445.807966	-984.156444	18.189848	-180.000000	1078.922212	536.538795	11.703781	-16.819902	
13.9900	-37.990204	-7.532725	11.701294	-82.069714	811.560736	-30.880650	23.102006	-45.000000	34.137409	-45.000000	-45.000000	-1173.406864	-3166.666343	23.774747	180.000000	1804.039335	-183.385744	13.575204	15.105814	3.105164	28.178483	-28.221235	-45.000000	-45.000000	-2445.656897	-984.073388	18.251047	-180.000000	1078.882128	536.255354	11.682303	-16.871950	
14.0000	-38.018129	-7.425811	11.403869	-83.893822	813.472563	-31.056602	23.073920	-45.000000	34.130246	-45.000000	-44.999999	-1173.565252	-3166.614553	23.810656	180.000000	1803.989331	-183.864014	13.619851	15.124970	3.058548	28.230517	-28.255130	-45.000000	-45.000000	-2445.514169	-983.995856	18.302530	-180.000000	1078.845418	535.886100	11.665369	-16.908941	
14.0100	-38.051070	-7.309376	11.099708	-85.652417	815.384446	-31.252967	23.035950	-45.000000	34.116232	-45.000000	-44.999999	-1173.709771	-3166.564004	23.842242	180.000000	1803.932944	-184.373580	13.657365	15.141594	3.029740	28.277148	-28.300367	-45.000000	-45.000000	-2445.380192	-983.920340	18.339719	-180.000000	1078.805155	535.422402	11.643599	-16.932483	
14.0200	-38.084998	-7.192676	10.799124	-87.345709	817.292999	-31.470938	22.996080	-45.000000	34.100749	-45.000000	-44.999997	-1173.849476	-3166.514883	23.872466	180.000000	1803.872610	-184.914426	13.688081	15.160062	3.005359	28.323491	-28.349306	-45.000000	-45.000000	-2445.249266	-983.848586	18.373617	-180.000000	1078.771897	534.863680	11.626389	-16.936592	
14.0300	-38.119034	-7.070534	10.500383	-88.973462	819.195279	-31.710929	22.947870	-45.000000	34.081546	-45.000000	-44.999995	-1173.977922	-3166.463982	23.893896	180.000000	1803.804246	-185.479670	13.716342	15.172164	2.994190	28.366218	-28.411058	-45.000000	-45.000000	-2445.130537	-983.784463	18.390569	-180.000000	1078.744742	534.215059	11.600453	-16.923918	
14.0400	-38.150231	-6.956128	10.216129	-90.535233	821.088591	-31.972093	22.899473	-45.000000	34.065256	-45.000000	-44.999992	-1174.107636	-3166.413710	23.911872	180.000000	1803.730594	-186.064771	13.744025	15.183567	2.974986	28.412630	-28.474131	-45.000000	-45.000000	-2445.010969	-983.729723	18.406893	-180.000000	1078.727248	533.488503	11.578279	-16.893514	
14.0500	-38.183130	-6.842979	9.936298	-92.030531	822.970397	-32.252015	22.845977	-45.000000	34.045855	-45.000000	-44.999985	-1174.230564	-3166.365586	23.929001	180.000000	1803.647678	-186.659022	13.772731	15.193633	2.963899	28.457138	-28.542030	-45.000000	-45.000000	-2444.890697	-983.679800	18.415307	-180.000000	1078.705970	532.695395	11.552641	-16.850073	
14.0600	-38.213776	-6.748479	9.677075	-93.458708	824.838097	-32.546617	22.801494	-45.000000	34.028180	-45.000000	-44.999974	-1174.361169	-3166.321192	23.955757	180.000000	1803.565772	-187.258955	13.798256	15.214036	2.941427	28.505905	-28.596168	-45.000000	-45.000000	-2444.755394	-983.631163	18.439011	-180.000000	1078.688777	531.848710	11.545622	-16.788363	
14.0700	-38.242942	-6.666081	9.431131	-94.818850	826.688832	-32.850426	22.761051	-45.000000	34.010996	-45.000000	-44.999953	-1174.490431	-3166.279436	23.988101	180.000000	1803.481980	-187.856546	13.822012	15.239763	2.920421	28.554152	-28.643517	-45.000000	-45.000000	-2444.615278	-983.583278	18.464670	-180.000000	1078.673579	530.962453	11.547348	-16.712709	
14.0800	-38.269206	-6.598504	9.201801	-96.109749	828.519275	-33.157066	22.725956	-45.000000	33.996736	-45.000000	-44.999916	-1174.622593	-3166.241327	24.027913	180.000000	1803.398647	-188.446315	13.845300	15.272368	2.889301	28.604872	-28.679390	-45.000000	-45.000000	-2444.466991	-983.536142	18.500524	-180.000000	1078.660448	530.054195	11.562270	-16.627067	
14.0900	-38.293716	-6.534205	8.977848	-97.329964	830.325468	-33.459960	22.689249	-45.000000	33.981131	-45.000000	-44.999849	-1174.746827	-3166.204469	24.071161	180.000000	1803.312245	-189.019437	13.871033	15.304753	2.861130	28.653192	-28.712807	-45.000000	-45.000000	-2444.323062	-983.488799	18.533866	-180.000000	1078.646778	529.144907	11.576075	-16.538757	
14.1000	-38.313561	-6.473614	8.763259	-98.477934	832.102687	-33.752979	22.651996	-45.000000	33.965518	-45.000000	-44.999730	-1174.867087	-3166.168150	24.115809	180.000000	1803.223688	-189.570880	13.900980	15.335514	2.827454	28.701552	-28.740961	-45.000000	-45.000000	-2444.186460	-983.441572	18.569432	-180.000000	1078.634922	528.256825	11.588603	-16.452340	
14.1100	-38.327971	-6.410883	8.553239	-99.552118	833.845490	-34.031052	22.609862	-45.000000	33.948534	-45.000000	-44.999515	-1174.977361	-3166.130241	24.156376	180.000000	1803.130099	-190.094746	13.938053	15.357721	2.794118	28.748019	-28.769854	-45.000000	-45.000000	-2444.067464	-983.395698	18.597706	-180.000000	1078.624168	527.413803	11.587765	-16.374960	
